<?xml version="1.0" encoding="utf-8" standalone="no"?>
<!DOCTYPE svg PUBLIC "-//W3C//DTD SVG 1.1//EN"
  "http://www.w3.org/Graphics/SVG/1.1/DTD/svg11.dtd">
<svg xmlns:xlink="http://www.w3.org/1999/xlink" width="612pt" height="306pt" viewBox="0 0 612 306" xmlns="http://www.w3.org/2000/svg" version="1.1">
 <metadata>
  <rdf:RDF xmlns:dc="http://purl.org/dc/elements/1.1/" xmlns:cc="http://creativecommons.org/ns#" xmlns:rdf="http://www.w3.org/1999/02/22-rdf-syntax-ns#">
   <cc:Work>
    <dc:type rdf:resource="http://purl.org/dc/dcmitype/StillImage"/>
    <dc:date>2024-06-06T11:18:37.847564</dc:date>
    <dc:format>image/svg+xml</dc:format>
    <dc:creator>
     <cc:Agent>
      <dc:title>Matplotlib v3.8.2, https://matplotlib.org/</dc:title>
     </cc:Agent>
    </dc:creator>
   </cc:Work>
  </rdf:RDF>
 </metadata>
 <defs>
  <style type="text/css">*{stroke-linejoin: round; stroke-linecap: butt}</style>
 </defs>
 <g id="figure_1">
  <g id="patch_1">
   <path d="M 0 306 
L 612 306 
L 612 0 
L 0 0 
z
" style="fill: #ffffff"/>
  </g>
  <g id="axes_1">
   <g id="patch_2">
    <path d="M 76.5 272.34 
L 292.090909 272.34 
L 292.090909 36.72 
L 76.5 36.72 
z
" style="fill: #ffffff"/>
   </g>
   <g id="PolyCollection_1">
    <path d="M 76.5 209.99282 
L 76.5 261.63 
L 76.715807 261.444194 
L 76.931613 261.249434 
L 77.14742 261.045832 
L 77.363227 260.833543 
L 77.579034 260.612617 
L 77.79484 260.38331 
L 78.010647 260.145775 
L 78.226454 259.900134 
L 78.44226 259.646591 
L 78.658067 259.385367 
L 78.873874 259.116664 
L 79.089681 258.840702 
L 79.305487 258.557725 
L 79.521294 258.26797 
L 79.737101 257.971689 
L 79.952907 257.669105 
L 80.168714 257.360518 
L 80.384521 257.04622 
L 80.600328 256.726396 
L 80.816134 256.401339 
L 81.031941 256.071268 
L 81.247748 255.73643 
L 81.463554 255.397119 
L 81.679361 255.053473 
L 81.895168 254.705804 
L 82.110975 254.354196 
L 82.326781 253.998821 
L 82.542588 253.639874 
L 82.758395 253.277393 
L 82.974201 252.911528 
L 83.190008 252.542264 
L 83.405815 252.169629 
L 83.621622 251.793548 
L 83.837428 251.414016 
L 84.053235 251.030936 
L 84.269042 250.64417 
L 84.484848 250.253543 
L 84.700655 249.858915 
L 84.916462 249.459939 
L 85.132269 249.056428 
L 85.348075 248.648109 
L 85.563882 248.234735 
L 85.779689 247.815794 
L 85.995495 247.391165 
L 86.211302 246.96042 
L 86.427109 246.523163 
L 86.642916 246.079073 
L 86.858722 245.627803 
L 87.074529 245.169028 
L 87.290336 244.702289 
L 87.506143 244.227278 
L 87.721949 243.74375 
L 87.937756 243.251199 
L 88.153563 242.749603 
L 88.369369 242.238366 
L 88.585176 241.717271 
L 88.800983 241.186119 
L 89.01679 240.644657 
L 89.232596 240.092605 
L 89.448403 239.529742 
L 89.66421 238.95595 
L 89.880016 238.371015 
L 90.095823 237.774785 
L 90.31163 237.167061 
L 90.527437 236.547844 
L 90.743243 235.916984 
L 90.95905 235.274439 
L 91.174857 234.61999 
L 91.390663 233.953754 
L 91.60647 233.275599 
L 91.822277 232.5856 
L 92.038084 231.883682 
L 92.25389 231.169944 
L 92.469697 230.444372 
L 92.685504 229.707071 
L 92.90131 228.958104 
L 93.117117 228.197475 
L 93.332924 227.425296 
L 93.548731 226.64174 
L 93.764537 225.84689 
L 93.980344 225.041008 
L 94.196151 224.223956 
L 94.411957 223.396057 
L 94.627764 222.55747 
L 94.843571 221.708359 
L 95.059378 220.84897 
L 95.275184 219.979394 
L 95.490991 219.099941 
L 95.706798 218.210787 
L 95.922604 217.312102 
L 96.138411 216.404316 
L 96.354218 215.487444 
L 96.570025 214.561779 
L 96.785831 213.627694 
L 97.001638 212.685368 
L 97.217445 211.735085 
L 97.433251 210.777214 
L 97.649058 209.812065 
L 97.864865 208.839778 
L 98.080672 207.860823 
L 98.296478 206.875609 
L 98.512285 205.883988 
L 98.728092 204.886753 
L 98.943898 203.88438 
L 99.159705 202.876734 
L 99.375512 201.864369 
L 99.591319 200.84772 
L 99.807125 199.827172 
L 100.022932 198.803088 
L 100.238739 197.775786 
L 100.454545 196.745708 
L 100.670352 195.713242 
L 100.886159 194.678879 
L 101.101966 193.643185 
L 101.317772 192.606166 
L 101.533579 191.568465 
L 101.749386 190.530649 
L 101.965192 189.492953 
L 102.180999 188.456033 
L 102.396806 187.420334 
L 102.612613 186.386207 
L 102.828419 185.354242 
L 103.044226 184.324845 
L 103.260033 183.298644 
L 103.475839 182.276066 
L 103.691646 181.257762 
L 103.907453 180.243989 
L 104.12326 179.235353 
L 104.339066 178.232447 
L 104.554873 177.235718 
L 104.77068 176.245873 
L 104.986486 175.263222 
L 105.202293 174.288441 
L 105.4181 173.321969 
L 105.633907 172.364484 
L 105.849713 171.416722 
L 106.06552 170.478738 
L 106.281327 169.55112 
L 106.497133 168.634727 
L 106.71294 167.729691 
L 106.928747 166.836841 
L 107.144554 165.956547 
L 107.36036 165.089121 
L 107.576167 164.235208 
L 107.791974 163.395197 
L 108.007781 162.569293 
L 108.223587 161.758315 
L 108.439394 160.962416 
L 108.655201 160.181805 
L 108.871007 159.416775 
L 109.086814 158.66771 
L 109.302621 157.934857 
L 109.518428 157.218201 
L 109.734234 156.518054 
L 109.950041 155.83468 
L 110.165848 155.16775 
L 110.381654 154.517456 
L 110.597461 153.883797 
L 110.813268 153.266797 
L 111.029075 152.665856 
L 111.244881 152.081523 
L 111.460688 151.513237 
L 111.676495 150.960636 
L 111.892301 150.423742 
L 112.108108 149.902312 
L 112.323915 149.395555 
L 112.539722 148.903514 
L 112.755528 148.425894 
L 112.971335 147.962319 
L 113.187142 147.512129 
L 113.402948 147.075073 
L 113.618755 146.650775 
L 113.834562 146.238841 
L 114.050369 145.838675 
L 114.266175 145.450047 
L 114.481982 145.072407 
L 114.697789 144.705117 
L 114.913595 144.348167 
L 115.129402 144.000928 
L 115.345209 143.662841 
L 115.561016 143.333465 
L 115.776822 143.01258 
L 115.992629 142.699592 
L 116.208436 142.394227 
L 116.424242 142.096055 
L 116.640049 141.804581 
L 116.855856 141.519333 
L 117.071663 141.240145 
L 117.287469 140.966479 
L 117.503276 140.698103 
L 117.719083 140.434677 
L 117.934889 140.175694 
L 118.150696 139.920902 
L 118.366503 139.670059 
L 118.58231 139.42278 
L 118.798116 139.178701 
L 119.013923 138.937679 
L 119.22973 138.699419 
L 119.445536 138.463545 
L 119.661343 138.229762 
L 119.87715 137.99798 
L 120.092957 137.767979 
L 120.308763 137.539255 
L 120.52457 137.312082 
L 120.740377 137.085722 
L 120.956183 136.860408 
L 121.17199 136.635764 
L 121.387797 136.41167 
L 121.603604 136.187917 
L 121.81941 135.96444 
L 122.035217 135.741072 
L 122.251024 135.517627 
L 122.46683 135.29416 
L 122.682637 135.070562 
L 122.898444 134.846589 
L 123.114251 134.622198 
L 123.330057 134.397488 
L 123.545864 134.172328 
L 123.761671 133.946551 
L 123.977477 133.720379 
L 124.193284 133.493579 
L 124.409091 133.266285 
L 124.624898 133.038528 
L 124.840704 132.81031 
L 125.056511 132.581674 
L 125.272318 132.352576 
L 125.488124 132.12329 
L 125.703931 131.893785 
L 125.919738 131.664247 
L 126.135545 131.434808 
L 126.351351 131.205368 
L 126.567158 130.976369 
L 126.782965 130.747788 
L 126.998771 130.520009 
L 127.214578 130.292924 
L 127.430385 130.067059 
L 127.646192 129.842526 
L 127.861998 129.619521 
L 128.077805 129.398364 
L 128.293612 129.179407 
L 128.509419 128.962704 
L 128.725225 128.748884 
L 128.941032 128.538099 
L 129.156839 128.330691 
L 129.372645 128.127044 
L 129.588452 127.927544 
L 129.804259 127.73251 
L 130.020066 127.542458 
L 130.235872 127.357587 
L 130.451679 127.178534 
L 130.667486 127.005531 
L 130.883292 126.839138 
L 131.099099 126.679663 
L 131.314906 126.527602 
L 131.530713 126.383218 
L 131.746519 126.247105 
L 131.962326 126.119484 
L 132.178133 126.000871 
L 132.393939 125.89154 
L 132.609746 125.791834 
L 132.825553 125.702149 
L 133.04136 125.622648 
L 133.257166 125.553739 
L 133.472973 125.49551 
L 133.68878 125.448204 
L 133.904586 125.412017 
L 134.120393 125.387027 
L 134.3362 125.373234 
L 134.552007 125.370738 
L 134.767813 125.379482 
L 134.98362 125.399313 
L 135.199427 125.430264 
L 135.415233 125.472115 
L 135.63104 125.524757 
L 135.846847 125.587825 
L 136.062654 125.661144 
L 136.27846 125.744418 
L 136.494267 125.837348 
L 136.710074 125.939584 
L 136.92588 126.050696 
L 137.141687 126.170464 
L 137.357494 126.298339 
L 137.573301 126.433934 
L 137.789107 126.576866 
L 138.004914 126.726706 
L 138.220721 126.883002 
L 138.436527 127.045314 
L 138.652334 127.213302 
L 138.868141 127.386404 
L 139.083948 127.564258 
L 139.299754 127.746446 
L 139.515561 127.932472 
L 139.731368 128.121974 
L 139.947174 128.314599 
L 140.162981 128.50982 
L 140.378788 128.70733 
L 140.594595 128.906708 
L 140.810401 129.107594 
L 141.026208 129.309613 
L 141.242015 129.512413 
L 141.457821 129.715663 
L 141.673628 129.918991 
L 141.889435 130.122142 
L 142.105242 130.324755 
L 142.321048 130.526532 
L 142.536855 130.727176 
L 142.752662 130.926412 
L 142.968468 131.123943 
L 143.184275 131.319582 
L 143.400082 131.513033 
L 143.615889 131.703997 
L 143.831695 131.892278 
L 144.047502 132.077633 
L 144.263309 132.259887 
L 144.479115 132.438797 
L 144.694922 132.614187 
L 144.910729 132.785826 
L 145.126536 132.95355 
L 145.342342 133.117171 
L 145.558149 133.276514 
L 145.773956 133.431424 
L 145.989762 133.581758 
L 146.205569 133.72733 
L 146.421376 133.867996 
L 146.637183 134.003691 
L 146.852989 134.134139 
L 147.068796 134.259319 
L 147.284603 134.379098 
L 147.50041 134.493367 
L 147.716216 134.601927 
L 147.932023 134.704746 
L 148.14783 134.801724 
L 148.363636 134.892741 
L 148.579443 134.977741 
L 148.79525 135.05656 
L 149.011057 135.129175 
L 149.226863 135.195477 
L 149.44267 135.2554 
L 149.658477 135.308888 
L 149.874283 135.355865 
L 150.09009 135.396231 
L 150.305897 135.429954 
L 150.521704 135.456957 
L 150.73751 135.477206 
L 150.953317 135.490668 
L 151.169124 135.497224 
L 151.38493 135.496916 
L 151.600737 135.489624 
L 151.816544 135.475347 
L 152.032351 135.454053 
L 152.248157 135.425697 
L 152.463964 135.390248 
L 152.679771 135.347681 
L 152.895577 135.297966 
L 153.111384 135.241079 
L 153.327191 135.176988 
L 153.542998 135.105703 
L 153.758804 135.02717 
L 153.974611 134.941422 
L 154.190418 134.848404 
L 154.406224 134.748137 
L 154.622031 134.640577 
L 154.837838 134.525748 
L 155.053645 134.403659 
L 155.269451 134.274267 
L 155.485258 134.137604 
L 155.701065 133.993682 
L 155.916871 133.842468 
L 156.132678 133.684005 
L 156.348485 133.518305 
L 156.564292 133.345335 
L 156.780098 133.165171 
L 156.995905 132.97777 
L 157.211712 132.783187 
L 157.427518 132.58141 
L 157.643325 132.372484 
L 157.859132 132.15643 
L 158.074939 131.933261 
L 158.290745 131.70304 
L 158.506552 131.465748 
L 158.722359 131.221438 
L 158.938165 130.970144 
L 159.153972 130.711898 
L 159.369779 130.446756 
L 159.585586 130.174718 
L 159.801392 129.895849 
L 160.017199 129.610216 
L 160.233006 129.317818 
L 160.448812 129.018722 
L 160.664619 128.712983 
L 160.880426 128.400655 
L 161.096233 128.081772 
L 161.312039 127.756411 
L 161.527846 127.424637 
L 161.743653 127.086483 
L 161.959459 126.742016 
L 162.175266 126.391324 
L 162.391073 126.034472 
L 162.60688 125.671505 
L 162.822686 125.302511 
L 163.038493 124.927577 
L 163.2543 124.546769 
L 163.470106 124.160154 
L 163.685913 123.767853 
L 163.90172 123.369898 
L 164.117527 122.966454 
L 164.333333 122.557533 
L 164.54914 122.143278 
L 164.764947 121.723787 
L 164.980753 121.299137 
L 165.19656 120.869461 
L 165.412367 120.434835 
L 165.628174 119.995392 
L 165.84398 119.551263 
L 166.059787 119.102515 
L 166.275594 118.649345 
L 166.4914 118.191808 
L 166.707207 117.73007 
L 166.923014 117.264284 
L 167.138821 116.79455 
L 167.354627 116.321021 
L 167.570434 115.843873 
L 167.786241 115.363238 
L 168.002048 114.87926 
L 168.217854 114.392125 
L 168.433661 113.902021 
L 168.649468 113.409067 
L 168.865274 112.913474 
L 169.081081 112.415417 
L 169.296888 111.915117 
L 169.512695 111.412737 
L 169.728501 110.90851 
L 169.944308 110.402611 
L 170.160115 109.895259 
L 170.375921 109.386753 
L 170.591728 108.877236 
L 170.807535 108.366992 
L 171.023342 107.856286 
L 171.239148 107.34536 
L 171.454955 106.834457 
L 171.670762 106.323861 
L 171.886568 105.813925 
L 172.102375 105.304869 
L 172.318182 104.797045 
L 172.533989 104.290706 
L 172.749795 103.786258 
L 172.965602 103.283989 
L 173.181409 102.784304 
L 173.397215 102.287534 
L 173.613022 101.794075 
L 173.828829 101.3043 
L 174.044636 100.818617 
L 174.260442 100.337499 
L 174.476249 99.861352 
L 174.692056 99.390594 
L 174.907862 98.925754 
L 175.123669 98.467272 
L 175.339476 98.015675 
L 175.555283 97.571469 
L 175.771089 97.135194 
L 175.986896 96.707409 
L 176.202703 96.288666 
L 176.418509 95.879569 
L 176.634316 95.480701 
L 176.850123 95.092733 
L 177.06593 94.71615 
L 177.281736 94.35172 
L 177.497543 94.000048 
L 177.71335 93.66184 
L 177.929156 93.33771 
L 178.144963 93.028308 
L 178.36077 92.734371 
L 178.576577 92.456503 
L 178.792383 92.195387 
L 179.00819 91.951715 
L 179.223997 91.726037 
L 179.439803 91.519003 
L 179.65561 91.331173 
L 179.871417 91.163174 
L 180.087224 91.015403 
L 180.30303 90.888397 
L 180.518837 90.782598 
L 180.734644 90.698345 
L 180.95045 90.635937 
L 181.166257 90.59556 
L 181.382064 90.577521 
L 181.597871 90.581844 
L 181.813677 90.608527 
L 182.029484 90.657649 
L 182.245291 90.728977 
L 182.461097 90.822392 
L 182.676904 90.937629 
L 182.892711 91.074324 
L 183.108518 91.232171 
L 183.324324 91.410773 
L 183.540131 91.609569 
L 183.755938 91.828119 
L 183.971744 92.065796 
L 184.187551 92.32215 
L 184.403358 92.596476 
L 184.619165 92.888181 
L 184.834971 93.196582 
L 185.050778 93.521108 
L 185.266585 93.861065 
L 185.482391 94.215794 
L 185.698198 94.584601 
L 185.914005 94.966927 
L 186.129812 95.362033 
L 186.345618 95.769326 
L 186.561425 96.18819 
L 186.777232 96.61802 
L 186.993038 97.058157 
L 187.208845 97.508104 
L 187.424652 97.967257 
L 187.640459 98.435001 
L 187.856265 98.910884 
L 188.072072 99.394301 
L 188.287879 99.884857 
L 188.503686 100.382001 
L 188.719492 100.88526 
L 188.935299 101.394151 
L 189.151106 101.90831 
L 189.366912 102.427243 
L 189.582719 102.950609 
L 189.798526 103.477956 
L 190.014333 104.008944 
L 190.230139 104.543166 
L 190.445946 105.080302 
L 190.661753 105.619968 
L 190.877559 106.161867 
L 191.093366 106.705702 
L 191.309173 107.251143 
L 191.52498 107.797859 
L 191.740786 108.345643 
L 191.956593 108.894174 
L 192.1724 109.443167 
L 192.388206 109.992414 
L 192.604013 110.541616 
L 192.81982 111.090576 
L 193.035627 111.639053 
L 193.251433 112.186803 
L 193.46724 112.733685 
L 193.683047 113.279367 
L 193.898853 113.823752 
L 194.11466 114.366608 
L 194.330467 114.90777 
L 194.546274 115.446996 
L 194.76208 115.984176 
L 194.977887 116.519146 
L 195.193694 117.051674 
L 195.4095 117.581694 
L 195.625307 118.108986 
L 195.841114 118.633407 
L 196.056921 119.154837 
L 196.272727 119.673143 
L 196.488534 120.188161 
L 196.704341 120.699768 
L 196.920147 121.207856 
L 197.135954 121.712326 
L 197.351761 122.213011 
L 197.567568 122.709825 
L 197.783374 123.202669 
L 197.999181 123.69141 
L 198.214988 124.17596 
L 198.430794 124.656231 
L 198.646601 125.132092 
L 198.862408 125.60351 
L 199.078215 126.070351 
L 199.294021 126.532562 
L 199.509828 126.990022 
L 199.725635 127.442686 
L 199.941441 127.890433 
L 200.157248 128.333231 
L 200.373055 128.771003 
L 200.588862 129.203682 
L 200.804668 129.63118 
L 201.020475 130.053432 
L 201.236282 130.470415 
L 201.452088 130.882031 
L 201.667895 131.288246 
L 201.883702 131.688995 
L 202.099509 132.084255 
L 202.315315 132.473917 
L 202.531122 132.85798 
L 202.746929 133.236401 
L 202.962735 133.609102 
L 203.178542 133.976062 
L 203.394349 134.337269 
L 203.610156 134.692625 
L 203.825962 135.042129 
L 204.041769 135.385738 
L 204.257576 135.723451 
L 204.473382 136.055203 
L 204.689189 136.380961 
L 204.904996 136.700713 
L 205.120803 137.014449 
L 205.336609 137.322124 
L 205.552416 137.623716 
L 205.768223 137.919227 
L 205.984029 138.208621 
L 206.199836 138.491879 
L 206.415643 138.76901 
L 206.63145 139.039959 
L 206.847256 139.30476 
L 207.063063 139.563369 
L 207.27887 139.815807 
L 207.494676 140.062031 
L 207.710483 140.302062 
L 207.92629 140.53589 
L 208.142097 140.763481 
L 208.357903 140.984913 
L 208.57371 141.20012 
L 208.789517 141.409134 
L 209.005324 141.611955 
L 209.22113 141.808574 
L 209.436937 141.998999 
L 209.652744 142.183255 
L 209.86855 142.361329 
L 210.084357 142.533265 
L 210.300164 142.699064 
L 210.515971 142.858759 
L 210.731777 143.012316 
L 210.947584 143.159801 
L 211.163391 143.301204 
L 211.379197 143.436569 
L 211.595004 143.565918 
L 211.810811 143.689282 
L 212.026618 143.806664 
L 212.242424 143.918106 
L 212.458231 144.02363 
L 212.674038 144.123281 
L 212.889844 144.217103 
L 213.105651 144.305128 
L 213.321458 144.387367 
L 213.537265 144.463898 
L 213.753071 144.534743 
L 213.968878 144.599945 
L 214.184685 144.65957 
L 214.400491 144.713642 
L 214.616298 144.762213 
L 214.832105 144.805351 
L 215.047912 144.843122 
L 215.263718 144.875536 
L 215.479525 144.902714 
L 215.695332 144.924669 
L 215.911138 144.941497 
L 216.126945 144.953266 
L 216.342752 144.960019 
L 216.558559 144.961845 
L 216.774365 144.958809 
L 216.990172 144.951022 
L 217.205979 144.938527 
L 217.421785 144.921413 
L 217.637592 144.8998 
L 217.853399 144.873721 
L 218.069206 144.84332 
L 218.285012 144.808662 
L 218.500819 144.769847 
L 218.716626 144.726972 
L 218.932432 144.680183 
L 219.148239 144.629554 
L 219.364046 144.575197 
L 219.579853 144.51721 
L 219.795659 144.455759 
L 220.011466 144.390953 
L 220.227273 144.322847 
L 220.443079 144.251672 
L 220.658886 144.177506 
L 220.874693 144.100535 
L 221.0905 144.020847 
L 221.306306 143.938608 
L 221.522113 143.853937 
L 221.73792 143.767067 
L 221.953726 143.678129 
L 222.169533 143.587223 
L 222.38534 143.494589 
L 222.601147 143.400382 
L 222.816953 143.304735 
L 223.03276 143.207878 
L 223.248567 143.109987 
L 223.464373 143.011238 
L 223.68018 142.911807 
L 223.895987 142.811958 
L 224.111794 142.711823 
L 224.3276 142.611688 
L 224.543407 142.511663 
L 224.759214 142.412078 
L 224.97502 142.313087 
L 225.190827 142.214921 
L 225.406634 142.117855 
L 225.622441 142.022053 
L 225.838247 141.927858 
L 226.054054 141.835356 
L 226.269861 141.744922 
L 226.485667 141.656765 
L 226.701474 141.571149 
L 226.917281 141.488294 
L 227.133088 141.408441 
L 227.348894 141.331932 
L 227.564701 141.25892 
L 227.780508 141.189759 
L 227.996314 141.1246 
L 228.212121 141.063754 
L 228.427928 141.007516 
L 228.643735 140.956074 
L 228.859541 140.909636 
L 229.075348 140.868533 
L 229.291155 140.832907 
L 229.506962 140.803045 
L 229.722768 140.779144 
L 229.938575 140.761402 
L 230.154382 140.749963 
L 230.370188 140.745091 
L 230.585995 140.746939 
L 230.801802 140.755661 
L 231.017609 140.771246 
L 231.233415 140.793959 
L 231.449222 140.823756 
L 231.665029 140.860855 
L 231.880835 140.905192 
L 232.096642 140.956866 
L 232.312449 141.015754 
L 232.528256 141.082023 
L 232.744062 141.155409 
L 232.959869 141.235998 
L 233.175676 141.323572 
L 233.391482 141.418065 
L 233.607289 141.519399 
L 233.823096 141.627365 
L 234.038903 141.741832 
L 234.254709 141.862601 
L 234.470516 141.989474 
L 234.686323 142.122309 
L 234.902129 142.260908 
L 235.117936 142.405006 
L 235.333743 142.554471 
L 235.54955 142.70904 
L 235.765356 142.868636 
L 235.981163 143.032928 
L 236.19697 143.201762 
L 236.412776 143.375041 
L 236.628583 143.552488 
L 236.84439 143.734059 
L 237.060197 143.919535 
L 237.276003 144.108751 
L 237.49181 144.301696 
L 237.707617 144.49827 
L 237.923423 144.698254 
L 238.13923 144.901791 
L 238.355037 145.108561 
L 238.570844 145.31884 
L 238.78665 145.532265 
L 239.002457 145.749099 
L 239.218264 145.969442 
L 239.43407 146.193008 
L 239.649877 146.42006 
L 239.865684 146.650687 
L 240.081491 146.884801 
L 240.297297 147.122688 
L 240.513104 147.364303 
L 240.728911 147.609811 
L 240.944717 147.859247 
L 241.160524 148.112873 
L 241.376331 148.370855 
L 241.592138 148.633082 
L 241.807944 148.899863 
L 242.023751 149.171351 
L 242.239558 149.44747 
L 242.455364 149.728583 
L 242.671171 150.0147 
L 242.886978 150.305898 
L 243.102785 150.602113 
L 243.318591 150.903749 
L 243.534398 151.210731 
L 243.750205 151.522982 
L 243.966011 151.840567 
L 244.181818 152.163663 
L 244.397625 152.492027 
L 244.613432 152.825814 
L 244.829238 153.164908 
L 245.045045 153.509166 
L 245.260852 153.858489 
L 245.476658 154.212888 
L 245.692465 154.572258 
L 245.908272 154.936276 
L 246.124079 155.304852 
L 246.339885 155.677988 
L 246.555692 156.055292 
L 246.771499 156.436589 
L 246.987305 156.821846 
L 247.203112 157.210705 
L 247.418919 157.603012 
L 247.634726 157.998668 
L 247.850532 158.397145 
L 248.066339 158.79856 
L 248.282146 159.202526 
L 248.497952 159.608845 
L 248.713759 160.017216 
L 248.929566 160.427556 
L 249.145373 160.839634 
L 249.361179 161.253141 
L 249.576986 161.667864 
L 249.792793 162.083742 
L 250.0086 162.500373 
L 250.224406 162.917632 
L 250.440213 163.335352 
L 250.65602 163.753364 
L 250.871826 164.171386 
L 251.087633 164.589249 
L 251.30344 165.006882 
L 251.519247 165.423931 
L 251.735053 165.840353 
L 251.95086 166.256017 
L 252.166667 166.670613 
L 252.382473 167.084099 
L 252.59828 167.496369 
L 252.814087 167.907132 
L 253.029894 168.316367 
L 253.2457 168.723891 
L 253.461507 169.129671 
L 253.677314 169.533445 
L 253.89312 169.935183 
L 254.108927 170.334783 
L 254.324734 170.732105 
L 254.540541 171.127025 
L 254.756347 171.51953 
L 254.972154 171.909417 
L 255.187961 172.296692 
L 255.403767 172.68125 
L 255.619574 173.06297 
L 255.835381 173.441798 
L 256.051188 173.817689 
L 256.266994 174.190594 
L 256.482801 174.560386 
L 256.698608 174.927038 
L 256.914414 175.290516 
L 257.130221 175.650739 
L 257.346028 176.007662 
L 257.561835 176.361275 
L 257.777641 176.711483 
L 257.993448 177.058249 
L 258.209255 177.401583 
L 258.425061 177.741468 
L 258.640868 178.077801 
L 258.856675 178.410598 
L 259.072482 178.739859 
L 259.288288 179.06549 
L 259.504095 179.387541 
L 259.719902 179.705984 
L 259.935708 180.020748 
L 260.151515 180.331882 
L 260.367322 180.639404 
L 260.583129 180.943213 
L 260.798935 181.243337 
L 261.014742 181.539798 
L 261.230549 181.832619 
L 261.446355 182.121717 
L 261.662162 182.407158 
L 261.877969 182.688919 
L 262.093776 182.96704 
L 262.309582 183.241454 
L 262.525389 183.512222 
L 262.741196 183.779355 
L 262.957002 184.042847 
L 263.172809 184.302726 
L 263.388616 184.558998 
L 263.604423 184.811667 
L 263.820229 185.060739 
L 264.036036 185.306259 
L 264.251843 185.548237 
L 264.467649 185.786674 
L 264.683456 186.021601 
L 264.899263 186.25307 
L 265.11507 186.481052 
L 265.330876 186.705574 
L 265.546683 186.926676 
L 265.76249 187.144413 
L 265.978296 187.358723 
L 266.194103 187.569711 
L 266.40991 187.777378 
L 266.625717 187.981745 
L 266.841523 188.182818 
L 267.05733 188.380662 
L 267.273137 188.575284 
L 267.488943 188.766727 
L 267.70475 188.955003 
L 267.920557 189.140138 
L 268.136364 189.322177 
L 268.35217 189.501147 
L 268.567977 189.67706 
L 268.783784 189.84997 
L 268.99959 190.019882 
L 269.215397 190.186858 
L 269.431204 190.350903 
L 269.647011 190.51206 
L 269.862817 190.670369 
L 270.078624 190.82584 
L 270.294431 190.978517 
L 270.510238 191.128428 
L 270.726044 191.275611 
L 270.941851 191.420089 
L 271.157658 191.561893 
L 271.373464 191.70108 
L 271.589271 191.837655 
L 271.805078 191.971634 
L 272.020885 192.103105 
L 272.236691 192.232052 
L 272.452498 192.358513 
L 272.668305 192.482559 
L 272.884111 192.604181 
L 273.099918 192.723399 
L 273.315725 192.840297 
L 273.531532 192.954868 
L 273.747338 193.067151 
L 273.963145 193.177174 
L 274.178952 193.284992 
L 274.394758 193.390599 
L 274.610565 193.494061 
L 274.826372 193.595378 
L 275.042179 193.694611 
L 275.257985 193.791765 
L 275.473792 193.886896 
L 275.689599 193.980002 
L 275.905405 194.071146 
L 276.121212 194.160326 
L 276.337019 194.247603 
L 276.552826 194.332982 
L 276.768632 194.416498 
L 276.984439 194.498198 
L 277.200246 194.578084 
L 277.416052 194.656199 
L 277.631859 194.732571 
L 277.847666 194.807221 
L 278.063473 194.880188 
L 278.279279 194.951489 
L 278.495086 195.021157 
L 278.710893 195.089219 
L 278.926699 195.155708 
L 279.142506 195.220624 
L 279.358313 195.284028 
L 279.57412 195.345919 
L 279.789926 195.406342 
L 280.005733 195.465319 
L 280.22154 195.52286 
L 280.437346 195.57901 
L 280.653153 195.63378 
L 280.86896 195.687207 
L 281.084767 195.739293 
L 281.300573 195.790081 
L 281.51638 195.839593 
L 281.732187 195.887851 
L 281.947993 195.934866 
L 282.1638 195.980677 
L 282.379607 196.0253 
L 282.595414 196.068752 
L 282.81122 196.111065 
L 283.027027 196.152256 
L 283.242834 196.192331 
L 283.45864 196.23135 
L 283.674447 196.269297 
L 283.890254 196.306193 
L 284.106061 196.342094 
L 284.321867 196.376977 
L 284.537674 196.410892 
L 284.753481 196.443851 
L 284.969287 196.475863 
L 285.185094 196.506947 
L 285.400901 196.537133 
L 285.616708 196.566446 
L 285.832514 196.594867 
L 286.048321 196.622464 
L 286.264128 196.649219 
L 286.479934 196.675165 
L 286.695741 196.700309 
L 286.911548 196.724672 
L 287.127355 196.748276 
L 287.343161 196.771132 
L 287.558968 196.793245 
L 287.774775 196.814655 
L 287.990581 196.835366 
L 288.206388 196.855379 
L 288.422195 196.874737 
L 288.638002 196.89343 
L 288.853808 196.911485 
L 289.069615 196.928912 
L 289.285422 196.94573 
L 289.501229 196.961948 
L 289.717035 196.977583 
L 289.932842 196.992652 
L 290.148649 197.007148 
L 290.364455 197.021101 
L 290.580262 197.03453 
L 290.796069 197.047432 
L 291.011876 197.059828 
L 291.227682 197.071724 
L 291.443489 197.08314 
L 291.659296 197.09409 
L 291.875102 197.104561 
L 292.090909 197.114598 
L 292.090909 82.222732 
L 292.090909 82.222732 
L 291.875102 82.263583 
L 291.659296 82.305093 
L 291.443489 82.347263 
L 291.227682 82.390093 
L 291.011876 82.433616 
L 290.796069 82.477821 
L 290.580262 82.52273 
L 290.364455 82.568343 
L 290.148649 82.614693 
L 289.932842 82.661769 
L 289.717035 82.709592 
L 289.501229 82.758164 
L 289.285422 82.807506 
L 289.069615 82.857639 
L 288.853808 82.908542 
L 288.638002 82.96026 
L 288.422195 83.01278 
L 288.206388 83.066125 
L 287.990581 83.120317 
L 287.774775 83.175356 
L 287.558968 83.231253 
L 287.343161 83.28803 
L 287.127355 83.345687 
L 286.911548 83.404246 
L 286.695741 83.463728 
L 286.479934 83.524135 
L 286.264128 83.585465 
L 286.048321 83.647752 
L 285.832514 83.711008 
L 285.616708 83.775242 
L 285.400901 83.840477 
L 285.185094 83.906702 
L 284.969287 83.973972 
L 284.753481 84.042254 
L 284.537674 84.111569 
L 284.321867 84.181985 
L 284.106061 84.253457 
L 283.890254 84.326028 
L 283.674447 84.399699 
L 283.45864 84.474493 
L 283.242834 84.55043 
L 283.027027 84.6275 
L 282.81122 84.705758 
L 282.595414 84.785182 
L 282.379607 84.865793 
L 282.1638 84.947626 
L 281.947993 85.03069 
L 281.732187 85.114987 
L 281.51638 85.200559 
L 281.300573 85.287374 
L 281.084767 85.375509 
L 280.86896 85.464931 
L 280.653153 85.555695 
L 280.437346 85.647767 
L 280.22154 85.741204 
L 280.005733 85.836037 
L 279.789926 85.932213 
L 279.57412 86.029807 
L 279.358313 86.128809 
L 279.142506 86.229252 
L 278.926699 86.331147 
L 278.710893 86.434515 
L 278.495086 86.539358 
L 278.279279 86.645696 
L 278.063473 86.753552 
L 277.847666 86.862948 
L 277.631859 86.973873 
L 277.416052 87.086382 
L 277.200246 87.200464 
L 276.984439 87.316151 
L 276.768632 87.433445 
L 276.552826 87.552366 
L 276.337019 87.672926 
L 276.121212 87.795158 
L 275.905405 87.919073 
L 275.689599 88.044659 
L 275.473792 88.171984 
L 275.257985 88.301024 
L 275.042179 88.431802 
L 274.826372 88.56434 
L 274.610565 88.698649 
L 274.394758 88.83474 
L 274.178952 88.972634 
L 273.963145 89.112355 
L 273.747338 89.25389 
L 273.531532 89.397284 
L 273.315725 89.542548 
L 273.099918 89.689671 
L 272.884111 89.838663 
L 272.668305 89.989591 
L 272.452498 90.142434 
L 272.236691 90.29719 
L 272.020885 90.453892 
L 271.805078 90.612553 
L 271.589271 90.773171 
L 271.373464 90.93577 
L 271.157658 91.100359 
L 270.941851 91.266939 
L 270.726044 91.43552 
L 270.510238 91.606137 
L 270.294431 91.778799 
L 270.078624 91.953464 
L 269.862817 92.130218 
L 269.647011 92.308995 
L 269.431204 92.489841 
L 269.215397 92.672765 
L 268.99959 92.85778 
L 268.783784 93.044851 
L 268.567977 93.234012 
L 268.35217 93.425262 
L 268.136364 93.618647 
L 267.920557 93.814077 
L 267.70475 94.011641 
L 267.488943 94.211317 
L 267.273137 94.413072 
L 267.05733 94.616939 
L 266.841523 94.822917 
L 266.625717 95.030985 
L 266.40991 95.241154 
L 266.194103 95.453424 
L 265.978296 95.667805 
L 265.76249 95.884222 
L 265.546683 96.10275 
L 265.330876 96.323346 
L 265.11507 96.545999 
L 264.899263 96.770698 
L 264.683456 96.997486 
L 264.467649 97.226232 
L 264.251843 97.457013 
L 264.036036 97.689818 
L 263.820229 97.924581 
L 263.604423 98.161291 
L 263.388616 98.399969 
L 263.172809 98.640594 
L 262.957002 98.8831 
L 262.741196 99.127454 
L 262.525389 99.373711 
L 262.309582 99.621749 
L 262.093776 99.871581 
L 261.877969 100.123216 
L 261.662162 100.376545 
L 261.446355 100.631568 
L 261.230549 100.888263 
L 261.014742 101.146607 
L 260.798935 101.406492 
L 260.583129 101.667872 
L 260.367322 101.93077 
L 260.151515 102.195197 
L 259.935708 102.460922 
L 259.719902 102.728 
L 259.504095 102.996398 
L 259.288288 103.265984 
L 259.072482 103.536735 
L 258.856675 103.808619 
L 258.640868 104.081516 
L 258.425061 104.355369 
L 258.209255 104.63019 
L 257.993448 104.905792 
L 257.777641 105.182098 
L 257.561835 105.459097 
L 257.346028 105.736734 
L 257.130221 106.014811 
L 256.914414 106.293284 
L 256.698608 106.572141 
L 256.482801 106.851131 
L 256.266994 107.130264 
L 256.051188 107.409462 
L 255.835381 107.688474 
L 255.619574 107.967277 
L 255.403767 108.245783 
L 255.187961 108.523871 
L 254.972154 108.801353 
L 254.756347 109.078099 
L 254.540541 109.354108 
L 254.324734 109.629051 
L 254.108927 109.902893 
L 253.89312 110.175547 
L 253.677314 110.446728 
L 253.461507 110.716313 
L 253.2457 110.984271 
L 253.029894 111.250249 
L 252.814087 111.514181 
L 252.59828 111.775869 
L 252.382473 112.035226 
L 252.166667 112.29191 
L 251.95086 112.545767 
L 251.735053 112.796775 
L 251.519247 113.044516 
L 251.30344 113.288859 
L 251.087633 113.529715 
L 250.871826 113.766667 
L 250.65602 113.999648 
L 250.440213 114.228449 
L 250.224406 114.452719 
L 250.0086 114.672281 
L 249.792793 114.886949 
L 249.576986 115.096579 
L 249.361179 115.300665 
L 249.145373 115.499186 
L 248.929566 115.6919 
L 248.713759 115.878454 
L 248.497952 116.058618 
L 248.282146 116.232259 
L 248.066339 116.399092 
L 247.850532 116.558863 
L 247.634726 116.711199 
L 247.418919 116.856232 
L 247.203112 116.993335 
L 246.987305 117.122507 
L 246.771499 117.243551 
L 246.555692 117.356104 
L 246.339885 117.4601 
L 246.124079 117.555439 
L 245.908272 117.641682 
L 245.692465 117.718862 
L 245.476658 117.786935 
L 245.260852 117.845527 
L 245.045045 117.894571 
L 244.829238 117.934168 
L 244.613432 117.964228 
L 244.397625 117.984587 
L 244.181818 117.995212 
L 243.966011 117.996301 
L 243.750205 117.987656 
L 243.534398 117.969497 
L 243.318591 117.941977 
L 243.102785 117.90502 
L 242.886978 117.858682 
L 242.671171 117.803368 
L 242.455364 117.739166 
L 242.239558 117.666155 
L 242.023751 117.584476 
L 241.807944 117.49456 
L 241.592138 117.396393 
L 241.376331 117.29022 
L 241.160524 117.176479 
L 240.944717 117.055083 
L 240.728911 116.926351 
L 240.513104 116.79059 
L 240.297297 116.648032 
L 240.081491 116.498798 
L 239.865684 116.343041 
L 239.649877 116.181113 
L 239.43407 116.013016 
L 239.218264 115.838989 
L 239.002457 115.659365 
L 238.78665 115.473965 
L 238.570844 115.282979 
L 238.355037 115.086823 
L 238.13923 114.8852 
L 237.923423 114.678473 
L 237.707617 114.466479 
L 237.49181 114.249446 
L 237.276003 114.027266 
L 237.060197 113.799906 
L 236.84439 113.56753 
L 236.628583 113.330018 
L 236.412776 113.087259 
L 236.19697 112.839319 
L 235.981163 112.586012 
L 235.765356 112.32737 
L 235.54955 112.063306 
L 235.333743 111.7936 
L 235.117936 111.518262 
L 234.902129 111.237116 
L 234.686323 110.950097 
L 234.470516 110.657051 
L 234.254709 110.357889 
L 234.038903 110.052556 
L 233.823096 109.740855 
L 233.607289 109.42272 
L 233.391482 109.098107 
L 233.175676 108.766806 
L 232.959869 108.428894 
L 232.744062 108.084284 
L 232.528256 107.732888 
L 232.312449 107.374794 
L 232.096642 107.009781 
L 231.880835 106.638102 
L 231.665029 106.259638 
L 231.449222 105.874529 
L 231.233415 105.482756 
L 231.017609 105.084537 
L 230.801802 104.679895 
L 230.585995 104.269049 
L 230.370188 103.852033 
L 230.154382 103.429 
L 229.938575 103.000127 
L 229.722768 102.565677 
L 229.506962 102.125772 
L 229.291155 101.680587 
L 229.075348 101.230365 
L 228.859541 100.775325 
L 228.643735 100.315633 
L 228.427928 99.851574 
L 228.212121 99.383357 
L 227.996314 98.911148 
L 227.780508 98.435221 
L 227.564701 97.955818 
L 227.348894 97.473116 
L 227.133088 96.987378 
L 226.917281 96.498802 
L 226.701474 96.007642 
L 226.485667 95.514094 
L 226.269861 95.018358 
L 226.054054 94.520675 
L 225.838247 94.021232 
L 225.622441 93.520272 
L 225.406634 93.017903 
L 225.190827 92.514446 
L 224.97502 92.009976 
L 224.759214 91.504748 
L 224.543407 90.998904 
L 224.3276 90.49262 
L 224.111794 89.986116 
L 223.895987 89.47948 
L 223.68018 88.972931 
L 223.464373 88.466603 
L 223.248567 87.960649 
L 223.03276 87.455201 
L 222.816953 86.950391 
L 222.601147 86.446394 
L 222.38534 85.943333 
L 222.169533 85.441294 
L 221.953726 84.94041 
L 221.73792 84.440814 
L 221.522113 83.942625 
L 221.306306 83.445888 
L 221.0905 82.95079 
L 220.874693 82.457385 
L 220.658886 81.965774 
L 220.443079 81.476043 
L 220.227273 80.988292 
L 220.011466 80.502576 
L 219.795659 80.019038 
L 219.579853 79.537711 
L 219.364046 79.058682 
L 219.148239 78.582007 
L 218.932432 78.107785 
L 218.716626 77.636038 
L 218.500819 77.166864 
L 218.285012 76.700297 
L 218.069206 76.236414 
L 217.853399 75.775248 
L 217.637592 75.316887 
L 217.421785 74.861341 
L 217.205979 74.408688 
L 216.990172 73.958939 
L 216.774365 73.512181 
L 216.558559 73.068437 
L 216.342752 72.627729 
L 216.126945 72.190123 
L 215.911138 71.75564 
L 215.695332 71.324303 
L 215.479525 70.896178 
L 215.263718 70.471275 
L 215.047912 70.049628 
L 214.832105 69.63127 
L 214.616298 69.216234 
L 214.400491 68.804541 
L 214.184685 68.396214 
L 213.968878 67.991286 
L 213.753071 67.589778 
L 213.537265 67.191713 
L 213.321458 66.797135 
L 213.105651 66.406021 
L 212.889844 66.018449 
L 212.674038 65.634386 
L 212.458231 65.253887 
L 212.242424 64.876973 
L 212.026618 64.503622 
L 211.810811 64.133924 
L 211.595004 63.767833 
L 211.379197 63.405416 
L 211.163391 63.046661 
L 210.947584 62.691591 
L 210.731777 62.34025 
L 210.515971 61.992605 
L 210.300164 61.648721 
L 210.084357 61.30861 
L 209.86855 60.97226 
L 209.652744 60.639716 
L 209.436937 60.311022 
L 209.22113 59.986144 
L 209.005324 59.665116 
L 208.789517 59.347993 
L 208.57371 59.034742 
L 208.357903 58.725428 
L 208.142097 58.420029 
L 207.92629 58.11859 
L 207.710483 57.821133 
L 207.494676 57.527658 
L 207.27887 57.23823 
L 207.063063 56.952828 
L 206.847256 56.671495 
L 206.63145 56.394255 
L 206.415643 56.121105 
L 206.199836 55.852092 
L 205.984029 55.587258 
L 205.768223 55.326559 
L 205.552416 55.070084 
L 205.336609 54.817855 
L 205.120803 54.569872 
L 204.904996 54.326178 
L 204.689189 54.086773 
L 204.473382 53.851725 
L 204.257576 53.621032 
L 204.041769 53.394716 
L 203.825962 53.172844 
L 203.610156 52.955416 
L 203.394349 52.742453 
L 203.178542 52.534 
L 202.962735 52.3301 
L 202.746929 52.130754 
L 202.531122 51.936006 
L 202.315315 51.745877 
L 202.099509 51.560434 
L 201.883702 51.379676 
L 201.667895 51.203626 
L 201.452088 51.03235 
L 201.236282 50.865869 
L 201.020475 50.704206 
L 200.804668 50.547426 
L 200.588862 50.395486 
L 200.373055 50.248495 
L 200.157248 50.106454 
L 199.941441 49.969384 
L 199.725635 49.83733 
L 199.509828 49.710336 
L 199.294021 49.588445 
L 199.078215 49.471635 
L 198.862408 49.359973 
L 198.646601 49.253503 
L 198.430794 49.152224 
L 198.214988 49.056181 
L 197.999181 48.965417 
L 197.783374 48.879911 
L 197.567568 48.799728 
L 197.351761 48.724891 
L 197.135954 48.655443 
L 196.920147 48.591363 
L 196.704341 48.532672 
L 196.488534 48.479437 
L 196.272727 48.431657 
L 196.056921 48.389311 
L 195.841114 48.352442 
L 195.625307 48.321073 
L 195.4095 48.295182 
L 195.193694 48.274812 
L 194.977887 48.259941 
L 194.76208 48.250592 
L 194.546274 48.24672 
L 194.330467 48.248348 
L 194.11466 48.255453 
L 193.898853 48.268058 
L 193.683047 48.286097 
L 193.46724 48.309568 
L 193.251433 48.33843 
L 193.035627 48.372681 
L 192.81982 48.412233 
L 192.604013 48.457087 
L 192.388206 48.507176 
L 192.1724 48.562413 
L 191.956593 48.622776 
L 191.740786 48.688154 
L 191.52498 48.758504 
L 191.309173 48.833715 
L 191.093366 48.913678 
L 190.877559 48.998282 
L 190.661753 49.087462 
L 190.445946 49.180997 
L 190.230139 49.278845 
L 190.014333 49.380805 
L 189.798526 49.486682 
L 189.582719 49.596364 
L 189.366912 49.709632 
L 189.151106 49.826265 
L 188.935299 49.946044 
L 188.719492 50.068749 
L 188.503686 50.19416 
L 188.287879 50.321946 
L 188.072072 50.451866 
L 187.856265 50.583591 
L 187.640459 50.716854 
L 187.424652 50.85124 
L 187.208845 50.986462 
L 186.993038 51.122102 
L 186.777232 51.257785 
L 186.561425 51.393117 
L 186.345618 51.527635 
L 186.129812 51.660877 
L 185.914005 51.792447 
L 185.698198 51.921839 
L 185.482391 52.048548 
L 185.266585 52.172067 
L 185.050778 52.291956 
L 184.834971 52.407643 
L 184.619165 52.518623 
L 184.403358 52.624368 
L 184.187551 52.724371 
L 183.971744 52.818148 
L 183.755938 52.90515 
L 183.540131 52.984981 
L 183.324324 53.057113 
L 183.108518 53.121193 
L 182.892711 53.176804 
L 182.676904 53.22355 
L 182.461097 53.261188 
L 182.245291 53.289412 
L 182.029484 53.308044 
L 181.813677 53.316931 
L 181.597871 53.315897 
L 181.382064 53.30503 
L 181.166257 53.284242 
L 180.95045 53.253665 
L 180.734644 53.213452 
L 180.518837 53.163803 
L 180.30303 53.104914 
L 180.087224 53.03716 
L 179.871417 52.960827 
L 179.65561 52.876333 
L 179.439803 52.784051 
L 179.223997 52.684466 
L 179.00819 52.578084 
L 178.792383 52.465344 
L 178.576577 52.346687 
L 178.36077 52.22275 
L 178.144963 52.094018 
L 177.929156 51.960952 
L 177.71335 51.824168 
L 177.497543 51.684107 
L 177.281736 51.54123 
L 177.06593 51.396175 
L 176.850123 51.249294 
L 176.634316 51.10116 
L 176.418509 50.952101 
L 176.202703 50.802625 
L 175.986896 50.65317 
L 175.771089 50.50409 
L 175.555283 50.355779 
L 175.339476 50.20859 
L 175.123669 50.062898 
L 174.907862 49.918987 
L 174.692056 49.77721 
L 174.476249 49.637786 
L 174.260442 49.501069 
L 174.044636 49.367255 
L 173.828829 49.23663 
L 173.613022 49.109372 
L 173.397215 48.985699 
L 173.181409 48.865788 
L 172.965602 48.749881 
L 172.749795 48.638131 
L 172.533989 48.530604 
L 172.318182 48.427544 
L 172.102375 48.329059 
L 171.886568 48.235237 
L 171.670762 48.146211 
L 171.454955 48.062069 
L 171.239148 47.982898 
L 171.023342 47.908809 
L 170.807535 47.839823 
L 170.591728 47.776051 
L 170.375921 47.717536 
L 170.160115 47.664345 
L 169.944308 47.616499 
L 169.728501 47.574043 
L 169.512695 47.536998 
L 169.296888 47.505431 
L 169.081081 47.479342 
L 168.865274 47.458751 
L 168.649468 47.443639 
L 168.433661 47.434048 
L 168.217854 47.43 
L 168.002048 47.43143 
L 167.786241 47.438403 
L 167.570434 47.450898 
L 167.354627 47.46887 
L 167.138821 47.492386 
L 166.923014 47.521314 
L 166.707207 47.555741 
L 166.4914 47.595623 
L 166.275594 47.640917 
L 166.059787 47.6916 
L 165.84398 47.747673 
L 165.628174 47.809092 
L 165.412367 47.875834 
L 165.19656 47.947877 
L 164.980753 48.025178 
L 164.764947 48.107715 
L 164.54914 48.195443 
L 164.333333 48.288362 
L 164.117527 48.386385 
L 163.90172 48.489534 
L 163.685913 48.597742 
L 163.470106 48.710966 
L 163.2543 48.829183 
L 163.038493 48.952372 
L 162.822686 49.080467 
L 162.60688 49.213445 
L 162.391073 49.351262 
L 162.175266 49.493897 
L 161.959459 49.641284 
L 161.743653 49.7934 
L 161.527846 49.950202 
L 161.312039 50.111667 
L 161.096233 50.27773 
L 160.880426 50.448413 
L 160.664619 50.623583 
L 160.448812 50.803263 
L 160.233006 50.98743 
L 160.017199 51.175997 
L 159.801392 51.368941 
L 159.585586 51.566242 
L 159.369779 51.767875 
L 159.153972 51.973733 
L 158.938165 52.18388 
L 158.722359 52.398184 
L 158.506552 52.61669 
L 158.290745 52.83931 
L 158.074939 53.066 
L 157.859132 53.296759 
L 157.643325 53.531544 
L 157.427518 53.770288 
L 157.211712 54.013014 
L 156.995905 54.259612 
L 156.780098 54.510103 
L 156.564292 54.764444 
L 156.348485 55.022591 
L 156.132678 55.284499 
L 155.916871 55.550169 
L 155.701065 55.819535 
L 155.485258 56.092552 
L 155.269451 56.369221 
L 155.053645 56.649497 
L 154.837838 56.933316 
L 154.622031 57.220676 
L 154.406224 57.511533 
L 154.190418 57.805845 
L 153.974611 58.103566 
L 153.758804 58.404697 
L 153.542998 58.709171 
L 153.327191 59.016945 
L 153.111384 59.328019 
L 152.895577 59.642327 
L 152.679771 59.959846 
L 152.463964 60.280511 
L 152.248157 60.604332 
L 152.032351 60.931201 
L 151.816544 61.261127 
L 151.600737 61.594067 
L 151.38493 61.929943 
L 151.169124 62.268757 
L 150.953317 62.610408 
L 150.73751 62.954897 
L 150.521704 63.302168 
L 150.305897 63.652168 
L 150.09009 64.004818 
L 149.874283 64.360107 
L 149.658477 64.717982 
L 149.44267 65.078364 
L 149.226863 65.4412 
L 149.011057 65.806433 
L 148.79525 66.173997 
L 148.579443 66.543828 
L 148.363636 66.91588 
L 148.14783 67.290077 
L 147.932023 67.66632 
L 147.716216 68.044554 
L 147.50041 68.42468 
L 147.284603 68.806664 
L 147.068796 69.190375 
L 146.852989 69.575769 
L 146.637183 69.962692 
L 146.421376 70.351144 
L 146.205569 70.740916 
L 145.989762 71.132007 
L 145.773956 71.52421 
L 145.558149 71.91749 
L 145.342342 72.311684 
L 145.126536 72.706702 
L 144.910729 73.102391 
L 144.694922 73.49863 
L 144.479115 73.895276 
L 144.263309 74.292186 
L 144.047502 74.689206 
L 143.831695 75.086182 
L 143.615889 75.482939 
L 143.400082 75.879321 
L 143.184275 76.275197 
L 142.968468 76.67027 
L 142.752662 77.064375 
L 142.536855 77.45737 
L 142.321048 77.849044 
L 142.105242 78.239102 
L 141.889435 78.627356 
L 141.673628 79.013619 
L 141.457821 79.397594 
L 141.242015 79.779007 
L 141.026208 80.15768 
L 140.810401 80.533263 
L 140.594595 80.905514 
L 140.378788 81.274145 
L 140.162981 81.638883 
L 139.947174 81.999354 
L 139.731368 82.355358 
L 139.515561 82.706436 
L 139.299754 83.052387 
L 139.083948 83.392829 
L 138.868141 83.727418 
L 138.652334 84.055827 
L 138.436527 84.377734 
L 138.220721 84.692779 
L 138.004914 85.000619 
L 137.789107 85.300925 
L 137.573301 85.593399 
L 137.357494 85.877614 
L 137.141687 86.153403 
L 136.92588 86.420359 
L 136.710074 86.678176 
L 136.494267 86.926589 
L 136.27846 87.165388 
L 136.062654 87.394332 
L 135.846847 87.613191 
L 135.63104 87.821776 
L 135.415233 88.020022 
L 135.199427 88.207654 
L 134.98362 88.384804 
L 134.767813 88.551296 
L 134.552007 88.707228 
L 134.3362 88.85258 
L 134.120393 88.987494 
L 133.904586 89.112135 
L 133.68878 89.226634 
L 133.472973 89.331246 
L 133.257166 89.426233 
L 133.04136 89.511971 
L 132.825553 89.588722 
L 132.609746 89.656937 
L 132.393939 89.717069 
L 132.178133 89.769512 
L 131.962326 89.814784 
L 131.746519 89.853336 
L 131.530713 89.88575 
L 131.314906 89.91251 
L 131.099099 89.934211 
L 130.883292 89.951381 
L 130.667486 89.964558 
L 130.451679 89.97427 
L 130.235872 89.98121 
L 130.020066 89.98583 
L 129.804259 89.988788 
L 129.588452 89.99057 
L 129.372645 89.991736 
L 129.156839 89.992825 
L 128.941032 89.994442 
L 128.725225 89.996994 
L 128.509419 90.001041 
L 128.293612 90.007091 
L 128.077805 90.015637 
L 127.861998 90.027065 
L 127.646192 90.041947 
L 127.430385 90.060667 
L 127.214578 90.083688 
L 126.998771 90.111295 
L 126.782965 90.144061 
L 126.567158 90.182228 
L 126.351351 90.226268 
L 126.135545 90.276401 
L 125.919738 90.333156 
L 125.703931 90.396742 
L 125.488124 90.467421 
L 125.272318 90.545646 
L 125.056511 90.631515 
L 124.840704 90.725502 
L 124.624898 90.827672 
L 124.409091 90.938442 
L 124.193284 91.057903 
L 123.977477 91.186393 
L 123.761671 91.324024 
L 123.545864 91.471069 
L 123.330057 91.62764 
L 123.114251 91.794033 
L 122.898444 91.97027 
L 122.682637 92.156582 
L 122.46683 92.353123 
L 122.251024 92.55996 
L 122.035217 92.777245 
L 121.81941 93.0051 
L 121.603604 93.243603 
L 121.387797 93.492807 
L 121.17199 93.752824 
L 120.956183 94.023663 
L 120.740377 94.305513 
L 120.52457 94.59824 
L 120.308763 94.902077 
L 120.092957 95.216747 
L 119.87715 95.542527 
L 119.661343 95.879305 
L 119.445536 96.227061 
L 119.22973 96.585749 
L 119.013923 96.955382 
L 118.798116 97.335892 
L 118.58231 97.727072 
L 118.366503 98.129086 
L 118.150696 98.541702 
L 117.934889 98.964867 
L 117.719083 99.398404 
L 117.503276 99.842279 
L 117.287469 100.296252 
L 117.071663 100.760267 
L 116.855856 101.234072 
L 116.640049 101.717544 
L 116.424242 102.210519 
L 116.208436 102.712657 
L 115.992629 103.223989 
L 115.776822 103.744 
L 115.561016 104.272678 
L 115.345209 104.809672 
L 115.129402 105.354826 
L 114.913595 105.907746 
L 114.697789 106.468223 
L 114.481982 107.035892 
L 114.266175 107.610612 
L 114.050369 108.191943 
L 113.834562 108.779575 
L 113.618755 109.373346 
L 113.402948 109.972857 
L 113.187142 110.577715 
L 112.971335 111.187741 
L 112.755528 111.802641 
L 112.539722 112.422039 
L 112.323915 113.045539 
L 112.108108 113.672999 
L 111.892301 114.304199 
L 111.676495 114.938611 
L 111.460688 115.576212 
L 111.244881 116.216761 
L 111.029075 116.860049 
L 110.813268 117.505647 
L 110.597461 118.153642 
L 110.381654 118.803815 
L 110.165848 119.45599 
L 109.950041 120.110112 
L 109.734234 120.766147 
L 109.518428 121.424031 
L 109.302621 122.083663 
L 109.086814 122.745044 
L 108.871007 123.408383 
L 108.655201 124.073614 
L 108.439394 124.740957 
L 108.223587 125.410367 
L 108.007781 126.082032 
L 107.791974 126.755952 
L 107.576167 127.432534 
L 107.36036 128.111788 
L 107.144554 128.793859 
L 106.928747 129.478987 
L 106.71294 130.167524 
L 106.497133 130.859395 
L 106.281327 131.555126 
L 106.06552 132.254519 
L 105.849713 132.958181 
L 105.633907 133.666088 
L 105.4181 134.378427 
L 105.202293 135.095386 
L 104.986486 135.817262 
L 104.77068 136.54412 
L 104.554873 137.276159 
L 104.339066 138.01362 
L 104.12326 138.756713 
L 103.907453 139.505382 
L 103.691646 140.259925 
L 103.475839 141.02033 
L 103.260033 141.786862 
L 103.044226 142.559465 
L 102.828419 143.338216 
L 102.612613 144.123369 
L 102.396806 144.914769 
L 102.180999 145.712483 
L 101.965192 146.516763 
L 101.749386 147.327423 
L 101.533579 148.144726 
L 101.317772 148.968298 
L 101.101966 149.798382 
L 100.886159 150.634912 
L 100.670352 151.47782 
L 100.454545 152.326998 
L 100.238739 153.182468 
L 100.022932 154.04408 
L 99.807125 154.911649 
L 99.591319 155.785371 
L 99.375512 156.665006 
L 99.159705 157.550233 
L 98.943898 158.44129 
L 98.728092 159.337764 
L 98.512285 160.239506 
L 98.296478 161.146446 
L 98.080672 162.058362 
L 97.864865 162.975063 
L 97.649058 163.896323 
L 97.433251 164.821812 
L 97.217445 165.751613 
L 97.001638 166.685275 
L 96.785831 167.622698 
L 96.570025 168.563635 
L 96.354218 169.507526 
L 96.138411 170.454512 
L 95.922604 171.403974 
L 95.706798 172.355784 
L 95.490991 173.309656 
L 95.275184 174.264903 
L 95.059378 175.221745 
L 94.843571 176.17983 
L 94.627764 177.138376 
L 94.411957 178.097363 
L 94.196151 179.056207 
L 93.980344 180.014737 
L 93.764537 180.972393 
L 93.548731 181.928828 
L 93.332924 182.883651 
L 93.117117 183.836325 
L 92.90131 184.786534 
L 92.685504 185.733614 
L 92.469697 186.677483 
L 92.25389 187.617397 
L 92.038084 188.552973 
L 91.822277 189.483659 
L 91.60647 190.408983 
L 91.390663 191.328324 
L 91.174857 192.241219 
L 90.95905 193.147086 
L 90.743243 194.045215 
L 90.527437 194.934914 
L 90.31163 195.816281 
L 90.095823 196.687974 
L 89.880016 197.549894 
L 89.66421 198.401102 
L 89.448403 199.240878 
L 89.232596 200.068619 
L 89.01679 200.883775 
L 88.800983 201.685679 
L 88.585176 202.473439 
L 88.369369 203.246367 
L 88.153563 204.003456 
L 87.937756 204.744838 
L 87.721949 205.468996 
L 87.506143 206.175803 
L 87.290336 206.86389 
L 87.074529 207.532899 
L 86.858722 208.182175 
L 86.642916 208.810675 
L 86.427109 209.418001 
L 86.211302 210.002972 
L 85.995495 210.565525 
L 85.779689 211.104088 
L 85.563882 211.619062 
L 85.348075 212.109444 
L 85.132269 212.574523 
L 84.916462 213.013757 
L 84.700655 213.42688 
L 84.484848 213.813401 
L 84.269042 214.172753 
L 84.053235 214.504551 
L 83.837428 214.808756 
L 83.621622 215.084941 
L 83.405815 215.332633 
L 83.190008 215.552537 
L 82.974201 215.744332 
L 82.758395 215.907848 
L 82.542588 216.043406 
L 82.326781 216.150904 
L 82.110975 216.230537 
L 81.895168 216.282815 
L 81.679361 216.308033 
L 81.463554 216.306106 
L 81.247748 216.27758 
L 81.031941 216.223129 
L 80.816134 216.143244 
L 80.600328 216.038363 
L 80.384521 215.908734 
L 80.168714 215.755089 
L 79.952907 215.577829 
L 79.737101 215.377427 
L 79.521294 215.154705 
L 79.305487 214.909958 
L 79.089681 214.644008 
L 78.873874 214.357201 
L 78.658067 214.049913 
L 78.44226 213.723311 
L 78.226454 213.377618 
L 78.010647 213.013496 
L 77.79484 212.631523 
L 77.579034 212.232149 
L 77.363227 211.815727 
L 77.14742 211.383193 
L 76.931613 210.934907 
L 76.715807 210.471574 
L 76.5 209.99282 
z
" clip-path="url(#p00e0188c08)" style="fill: #1f77b4; fill-opacity: 0.3"/>
   </g>
   <g id="PathCollection_1">
    <defs>
     <path id="m453df95d96" d="M 0 3 
C 0.795609 3 1.55874 2.683901 2.12132 2.12132 
C 2.683901 1.55874 3 0.795609 3 0 
C 3 -0.795609 2.683901 -1.55874 2.12132 -2.12132 
C 1.55874 -2.683901 0.795609 -3 0 -3 
C -0.795609 -3 -1.55874 -2.683901 -2.12132 -2.12132 
C -2.683901 -1.55874 -3 -0.795609 -3 0 
C -3 0.795609 -2.683901 1.55874 -2.12132 2.12132 
C -1.55874 2.683901 -0.795609 3 0 3 
z
" style="stroke: #ff7f0e"/>
    </defs>
    <g clip-path="url(#p00e0188c08)">
     <use xlink:href="#m453df95d96" x="109.929769" y="130.604713" style="fill: #ff7f0e; stroke: #ff7f0e"/>
     <use xlink:href="#m453df95d96" x="244.253731" y="137.387975" style="fill: #ff7f0e; stroke: #ff7f0e"/>
     <use xlink:href="#m453df95d96" x="83.616362" y="248.327991" style="fill: #ff7f0e; stroke: #ff7f0e"/>
     <use xlink:href="#m453df95d96" x="231.935009" y="121.441783" style="fill: #ff7f0e; stroke: #ff7f0e"/>
     <use xlink:href="#m453df95d96" x="181.559553" y="64.906208" style="fill: #ff7f0e; stroke: #ff7f0e"/>
     <use xlink:href="#m453df95d96" x="134.227915" y="106.881301" style="fill: #ff7f0e; stroke: #ff7f0e"/>
    </g>
   </g>
   <g id="matplotlib.axis_1">
    <g id="xtick_1">
     <g id="line2d_1">
      <defs>
       <path id="m8a9dca8762" d="M 0 0 
L 0 3.5 
" style="stroke: #000000; stroke-width: 0.8"/>
      </defs>
      <g>
       <use xlink:href="#m8a9dca8762" x="76.5" y="272.34" style="stroke: #000000; stroke-width: 0.8"/>
      </g>
     </g>
     <g id="text_1">
      <text style="font: 14px 'DejaVu Sans', 'Bitstream Vera Sans', 'Computer Modern Sans Serif', 'Lucida Grande', 'Verdana', 'Geneva', 'Lucid', 'Arial', 'Helvetica', 'Avant Garde', sans-serif; text-anchor: middle" x="76.5" y="289.977813" transform="rotate(-0 76.5 289.977813)">0.0</text>
     </g>
    </g>
    <g id="xtick_2">
     <g id="line2d_2">
      <g>
       <use xlink:href="#m8a9dca8762" x="119.618182" y="272.34" style="stroke: #000000; stroke-width: 0.8"/>
      </g>
     </g>
     <g id="text_2">
      <text style="font: 14px 'DejaVu Sans', 'Bitstream Vera Sans', 'Computer Modern Sans Serif', 'Lucida Grande', 'Verdana', 'Geneva', 'Lucid', 'Arial', 'Helvetica', 'Avant Garde', sans-serif; text-anchor: middle" x="119.618182" y="289.977813" transform="rotate(-0 119.618182 289.977813)">0.2</text>
     </g>
    </g>
    <g id="xtick_3">
     <g id="line2d_3">
      <g>
       <use xlink:href="#m8a9dca8762" x="162.736364" y="272.34" style="stroke: #000000; stroke-width: 0.8"/>
      </g>
     </g>
     <g id="text_3">
      <text style="font: 14px 'DejaVu Sans', 'Bitstream Vera Sans', 'Computer Modern Sans Serif', 'Lucida Grande', 'Verdana', 'Geneva', 'Lucid', 'Arial', 'Helvetica', 'Avant Garde', sans-serif; text-anchor: middle" x="162.736364" y="289.977813" transform="rotate(-0 162.736364 289.977813)">0.4</text>
     </g>
    </g>
    <g id="xtick_4">
     <g id="line2d_4">
      <g>
       <use xlink:href="#m8a9dca8762" x="205.854545" y="272.34" style="stroke: #000000; stroke-width: 0.8"/>
      </g>
     </g>
     <g id="text_4">
      <text style="font: 14px 'DejaVu Sans', 'Bitstream Vera Sans', 'Computer Modern Sans Serif', 'Lucida Grande', 'Verdana', 'Geneva', 'Lucid', 'Arial', 'Helvetica', 'Avant Garde', sans-serif; text-anchor: middle" x="205.854545" y="289.977813" transform="rotate(-0 205.854545 289.977813)">0.6</text>
     </g>
    </g>
    <g id="xtick_5">
     <g id="line2d_5">
      <g>
       <use xlink:href="#m8a9dca8762" x="248.972727" y="272.34" style="stroke: #000000; stroke-width: 0.8"/>
      </g>
     </g>
     <g id="text_5">
      <text style="font: 14px 'DejaVu Sans', 'Bitstream Vera Sans', 'Computer Modern Sans Serif', 'Lucida Grande', 'Verdana', 'Geneva', 'Lucid', 'Arial', 'Helvetica', 'Avant Garde', sans-serif; text-anchor: middle" x="248.972727" y="289.977813" transform="rotate(-0 248.972727 289.977813)">0.8</text>
     </g>
    </g>
    <g id="xtick_6">
     <g id="line2d_6">
      <g>
       <use xlink:href="#m8a9dca8762" x="292.090909" y="272.34" style="stroke: #000000; stroke-width: 0.8"/>
      </g>
     </g>
     <g id="text_6">
      <text style="font: 14px 'DejaVu Sans', 'Bitstream Vera Sans', 'Computer Modern Sans Serif', 'Lucida Grande', 'Verdana', 'Geneva', 'Lucid', 'Arial', 'Helvetica', 'Avant Garde', sans-serif; text-anchor: middle" x="292.090909" y="289.977813" transform="rotate(-0 292.090909 289.977813)">1.0</text>
     </g>
    </g>
    <g id="text_7">
     <text style="font: 14px 'DejaVu Sans', 'Bitstream Vera Sans', 'Computer Modern Sans Serif', 'Lucida Grande', 'Verdana', 'Geneva', 'Lucid', 'Arial', 'Helvetica', 'Avant Garde', sans-serif; text-anchor: middle" x="184.295455" y="307.527188" transform="rotate(-0 184.295455 307.527188)">Input</text>
    </g>
   </g>
   <g id="matplotlib.axis_2">
    <g id="ytick_1">
     <g id="line2d_7">
      <defs>
       <path id="m905a5cbe39" d="M 0 0 
L -3.5 0 
" style="stroke: #000000; stroke-width: 0.8"/>
      </defs>
      <g>
       <use xlink:href="#m905a5cbe39" x="76.5" y="244.465064" style="stroke: #000000; stroke-width: 0.8"/>
      </g>
     </g>
     <g id="text_8">
      <text style="font: 14px 'DejaVu Sans', 'Bitstream Vera Sans', 'Computer Modern Sans Serif', 'Lucida Grande', 'Verdana', 'Geneva', 'Lucid', 'Arial', 'Helvetica', 'Avant Garde', sans-serif; text-anchor: end" x="69.5" y="249.78397" transform="rotate(-0 69.5 249.78397)">0.0</text>
     </g>
    </g>
    <g id="ytick_2">
     <g id="line2d_8">
      <g>
       <use xlink:href="#m905a5cbe39" x="76.5" y="207.55853" style="stroke: #000000; stroke-width: 0.8"/>
      </g>
     </g>
     <g id="text_9">
      <text style="font: 14px 'DejaVu Sans', 'Bitstream Vera Sans', 'Computer Modern Sans Serif', 'Lucida Grande', 'Verdana', 'Geneva', 'Lucid', 'Arial', 'Helvetica', 'Avant Garde', sans-serif; text-anchor: end" x="69.5" y="212.877436" transform="rotate(-0 69.5 212.877436)">0.2</text>
     </g>
    </g>
    <g id="ytick_3">
     <g id="line2d_9">
      <g>
       <use xlink:href="#m905a5cbe39" x="76.5" y="170.651995" style="stroke: #000000; stroke-width: 0.8"/>
      </g>
     </g>
     <g id="text_10">
      <text style="font: 14px 'DejaVu Sans', 'Bitstream Vera Sans', 'Computer Modern Sans Serif', 'Lucida Grande', 'Verdana', 'Geneva', 'Lucid', 'Arial', 'Helvetica', 'Avant Garde', sans-serif; text-anchor: end" x="69.5" y="175.970901" transform="rotate(-0 69.5 175.970901)">0.4</text>
     </g>
    </g>
    <g id="ytick_4">
     <g id="line2d_10">
      <g>
       <use xlink:href="#m905a5cbe39" x="76.5" y="133.745461" style="stroke: #000000; stroke-width: 0.8"/>
      </g>
     </g>
     <g id="text_11">
      <text style="font: 14px 'DejaVu Sans', 'Bitstream Vera Sans', 'Computer Modern Sans Serif', 'Lucida Grande', 'Verdana', 'Geneva', 'Lucid', 'Arial', 'Helvetica', 'Avant Garde', sans-serif; text-anchor: end" x="69.5" y="139.064367" transform="rotate(-0 69.5 139.064367)">0.6</text>
     </g>
    </g>
    <g id="ytick_5">
     <g id="line2d_11">
      <g>
       <use xlink:href="#m905a5cbe39" x="76.5" y="96.838927" style="stroke: #000000; stroke-width: 0.8"/>
      </g>
     </g>
     <g id="text_12">
      <text style="font: 14px 'DejaVu Sans', 'Bitstream Vera Sans', 'Computer Modern Sans Serif', 'Lucida Grande', 'Verdana', 'Geneva', 'Lucid', 'Arial', 'Helvetica', 'Avant Garde', sans-serif; text-anchor: end" x="69.5" y="102.157833" transform="rotate(-0 69.5 102.157833)">0.8</text>
     </g>
    </g>
    <g id="ytick_6">
     <g id="line2d_12">
      <g>
       <use xlink:href="#m905a5cbe39" x="76.5" y="59.932392" style="stroke: #000000; stroke-width: 0.8"/>
      </g>
     </g>
     <g id="text_13">
      <text style="font: 14px 'DejaVu Sans', 'Bitstream Vera Sans', 'Computer Modern Sans Serif', 'Lucida Grande', 'Verdana', 'Geneva', 'Lucid', 'Arial', 'Helvetica', 'Avant Garde', sans-serif; text-anchor: end" x="69.5" y="65.251298" transform="rotate(-0 69.5 65.251298)">1.0</text>
     </g>
    </g>
    <g id="text_14">
     <text style="font: 14px 'DejaVu Sans', 'Bitstream Vera Sans', 'Computer Modern Sans Serif', 'Lucida Grande', 'Verdana', 'Geneva', 'Lucid', 'Arial', 'Helvetica', 'Avant Garde', sans-serif; text-anchor: middle" x="40.324062" y="154.53" transform="rotate(-90 40.324062 154.53)">Response</text>
    </g>
   </g>
   <g id="line2d_13">
    <path d="M 76.5 244.465064 
L 91.390663 204.737368 
L 99.375512 184.085413 
L 105.849713 167.927411 
L 111.676495 153.963243 
L 117.071663 141.61272 
L 122.035217 130.809684 
L 126.567158 121.46372 
L 130.883292 113.060772 
L 134.98362 105.558789 
L 138.868141 98.90854 
L 142.536855 93.055532 
L 145.989762 87.941739 
L 149.44267 83.22413 
L 152.679771 79.17182 
L 155.701065 75.721266 
L 158.722359 72.597739 
L 161.527846 69.995444 
L 164.333333 67.6847 
L 167.138821 65.669368 
L 169.728501 64.074184 
L 172.318182 62.735858 
L 174.907862 61.656297 
L 177.281736 60.895335 
L 179.65561 60.354014 
L 182.029484 60.032981 
L 184.403358 59.93262 
L 186.777232 60.053051 
L 189.151106 60.394131 
L 191.52498 60.95545 
L 193.898853 61.736337 
L 196.272727 62.735858 
L 198.862408 64.074184 
L 201.452088 65.669368 
L 204.041769 67.51914 
L 206.847256 69.807291 
L 209.652744 72.387307 
L 212.674038 75.487236 
L 215.695332 78.914645 
L 218.932432 82.942712 
L 222.169533 87.330117 
L 225.622441 92.395074 
L 229.291155 98.19803 
L 232.959869 104.418921 
L 236.84439 111.44151 
L 240.944717 119.316051 
L 245.260852 128.087024 
L 249.792793 137.7912 
L 254.756347 148.951588 
L 260.151515 161.646952 
L 265.978296 175.930177 
L 272.668305 192.931938 
L 280.86896 214.423419 
L 292.090909 244.465064 
L 292.090909 244.465064 
" clip-path="url(#p00e0188c08)" style="fill: none; stroke-dasharray: 5.55,2.4; stroke-dashoffset: 0; stroke: #000000; stroke-width: 1.5"/>
   </g>
   <g id="line2d_14">
    <path d="M 76.5 235.81141 
L 77.579034 236.422383 
L 78.44226 236.684951 
L 79.305487 236.733842 
L 80.168714 236.557803 
L 81.031941 236.147199 
L 81.895168 235.494309 
L 82.758395 234.592622 
L 83.837428 233.111386 
L 84.916462 231.236847 
L 86.211302 228.481696 
L 87.506143 225.20154 
L 89.01679 220.764217 
L 90.743243 214.9811 
L 92.90131 206.87232 
L 95.490991 196.204798 
L 100.454545 174.536353 
L 104.12326 158.99603 
L 106.71294 148.94861 
L 108.871007 141.412576 
L 110.813268 135.386222 
L 112.755528 130.114267 
L 114.481982 126.05415 
L 116.208436 122.553442 
L 117.934889 119.570281 
L 119.661343 117.054533 
L 121.387797 114.952239 
L 123.114251 113.208116 
L 124.840704 111.767906 
L 126.782965 110.445925 
L 128.941032 109.26627 
L 131.530713 108.134484 
L 135.199427 106.818959 
L 141.026208 104.733647 
L 144.047502 103.38342 
L 146.637183 101.983192 
L 149.226863 100.318338 
L 151.816544 98.368237 
L 154.406224 96.12983 
L 157.211712 93.398095 
L 160.448812 89.910992 
L 165.19656 84.408675 
L 169.728501 79.241276 
L 172.318182 76.612294 
L 174.260442 74.919284 
L 175.986896 73.68029 
L 177.497543 72.842078 
L 179.00819 72.264894 
L 180.30303 71.996661 
L 181.597871 71.94887 
L 182.892711 72.125558 
L 184.187551 72.52326 
L 185.482391 73.132165 
L 186.993038 74.090135 
L 188.719492 75.47701 
L 190.661753 77.353715 
L 192.81982 79.75141 
L 195.625307 83.21503 
L 200.373055 89.509749 
L 206.415643 97.445057 
L 210.300164 102.173892 
L 213.968878 106.295615 
L 217.853399 110.324485 
L 222.816953 115.127563 
L 233.607289 125.471059 
L 239.865684 131.496864 
L 242.886978 134.08229 
L 245.476658 135.999911 
L 247.850532 137.478002 
L 250.224406 138.685175 
L 252.59828 139.636116 
L 254.972154 140.355385 
L 257.561835 140.910186 
L 260.367322 141.285087 
L 263.604423 141.486479 
L 267.488943 141.48902 
L 272.452498 141.250473 
L 280.653153 140.594734 
L 292.090909 139.668662 
L 292.090909 139.668662 
" clip-path="url(#p00e0188c08)" style="fill: none; stroke: #1f77b4; stroke-width: 1.5; stroke-linecap: square"/>
   </g>
   <g id="patch_3">
    <path d="M 76.5 272.34 
L 76.5 36.72 
" style="fill: none; stroke: #000000; stroke-width: 0.8; stroke-linejoin: miter; stroke-linecap: square"/>
   </g>
   <g id="patch_4">
    <path d="M 292.090909 272.34 
L 292.090909 36.72 
" style="fill: none; stroke: #000000; stroke-width: 0.8; stroke-linejoin: miter; stroke-linecap: square"/>
   </g>
   <g id="patch_5">
    <path d="M 76.5 272.34 
L 292.090909 272.34 
" style="fill: none; stroke: #000000; stroke-width: 0.8; stroke-linejoin: miter; stroke-linecap: square"/>
   </g>
   <g id="patch_6">
    <path d="M 76.5 36.72 
L 292.090909 36.72 
" style="fill: none; stroke: #000000; stroke-width: 0.8; stroke-linejoin: miter; stroke-linecap: square"/>
   </g>
   <g id="legend_1">
    <g id="patch_7">
     <path d="M 116.18983 265.34 
L 252.40108 265.34 
Q 255.20108 265.34 255.20108 262.54 
L 255.20108 181.7425 
Q 255.20108 178.9425 252.40108 178.9425 
L 116.18983 178.9425 
Q 113.38983 178.9425 113.38983 181.7425 
L 113.38983 262.54 
Q 113.38983 265.34 116.18983 265.34 
z
" style="fill: #ffffff; opacity: 0.8; stroke: #cccccc; stroke-linejoin: miter"/>
    </g>
    <g id="line2d_15">
     <path d="M 118.98983 190.280313 
L 132.98983 190.280313 
L 146.98983 190.280313 
" style="fill: none; stroke-dasharray: 5.55,2.4; stroke-dashoffset: 0; stroke: #000000; stroke-width: 1.5"/>
    </g>
    <g id="text_15">
     <text style="font: 14px 'DejaVu Sans', 'Bitstream Vera Sans', 'Computer Modern Sans Serif', 'Lucida Grande', 'Verdana', 'Geneva', 'Lucid', 'Arial', 'Helvetica', 'Avant Garde', sans-serif; text-anchor: start" x="158.18983" y="195.180313" transform="rotate(-0 158.18983 195.180313)">Ground Truth</text>
    </g>
    <g id="patch_8">
     <path d="M 118.98983 215.729688 
L 146.98983 215.729688 
L 146.98983 205.929688 
L 118.98983 205.929688 
z
" style="fill: #1f77b4; fill-opacity: 0.3"/>
    </g>
    <g id="text_16">
     <text style="font: 14px 'DejaVu Sans', 'Bitstream Vera Sans', 'Computer Modern Sans Serif', 'Lucida Grande', 'Verdana', 'Geneva', 'Lucid', 'Arial', 'Helvetica', 'Avant Garde', sans-serif; text-anchor: start" x="158.18983" y="215.729688" transform="rotate(-0 158.18983 215.729688)">Confidence</text>
    </g>
    <g id="line2d_16">
     <path d="M 118.98983 231.379063 
L 132.98983 231.379063 
L 146.98983 231.379063 
" style="fill: none; stroke: #1f77b4; stroke-width: 1.5; stroke-linecap: square"/>
    </g>
    <g id="text_17">
     <text style="font: 14px 'DejaVu Sans', 'Bitstream Vera Sans', 'Computer Modern Sans Serif', 'Lucida Grande', 'Verdana', 'Geneva', 'Lucid', 'Arial', 'Helvetica', 'Avant Garde', sans-serif; text-anchor: start" x="158.18983" y="236.279063" transform="rotate(-0 158.18983 236.279063)">Estimate</text>
    </g>
    <g id="PathCollection_2">
     <g>
      <use xlink:href="#m453df95d96" x="132.98983" y="253.153437" style="fill: #ff7f0e; stroke: #ff7f0e"/>
     </g>
    </g>
    <g id="text_18">
     <text style="font: 14px 'DejaVu Sans', 'Bitstream Vera Sans', 'Computer Modern Sans Serif', 'Lucida Grande', 'Verdana', 'Geneva', 'Lucid', 'Arial', 'Helvetica', 'Avant Garde', sans-serif; text-anchor: start" x="158.18983" y="256.828438" transform="rotate(-0 158.18983 256.828438)">Samples</text>
    </g>
   </g>
  </g>
  <g id="axes_2">
   <g id="patch_9">
    <path d="M 335.209091 272.34 
L 550.8 272.34 
L 550.8 36.72 
L 335.209091 36.72 
z
" style="fill: #ffffff"/>
   </g>
   <g id="PathCollection_3">
    <defs>
     <path id="mdc99bee5d4" d="M 0 -5 
L -1.12257 -1.545085 
L -4.755283 -1.545085 
L -1.816356 0.59017 
L -2.938926 4.045085 
L -0 1.90983 
L 2.938926 4.045085 
L 1.816356 0.59017 
L 4.755283 -1.545085 
L 1.12257 -1.545085 
z
" style="stroke: #ff0000"/>
    </defs>
    <g clip-path="url(#pa4cc5cf459)">
     <use xlink:href="#mdc99bee5d4" x="421.747584" y="47.43" style="fill: #ff0000; stroke: #ff0000"/>
    </g>
   </g>
   <g id="matplotlib.axis_3">
    <g id="xtick_7">
     <g id="line2d_17">
      <g>
       <use xlink:href="#m8a9dca8762" x="335.209091" y="272.34" style="stroke: #000000; stroke-width: 0.8"/>
      </g>
     </g>
     <g id="text_19">
      <text style="font: 14px 'DejaVu Sans', 'Bitstream Vera Sans', 'Computer Modern Sans Serif', 'Lucida Grande', 'Verdana', 'Geneva', 'Lucid', 'Arial', 'Helvetica', 'Avant Garde', sans-serif; text-anchor: middle" x="335.209091" y="289.977813" transform="rotate(-0 335.209091 289.977813)">0.0</text>
     </g>
    </g>
    <g id="xtick_8">
     <g id="line2d_18">
      <g>
       <use xlink:href="#m8a9dca8762" x="378.327273" y="272.34" style="stroke: #000000; stroke-width: 0.8"/>
      </g>
     </g>
     <g id="text_20">
      <text style="font: 14px 'DejaVu Sans', 'Bitstream Vera Sans', 'Computer Modern Sans Serif', 'Lucida Grande', 'Verdana', 'Geneva', 'Lucid', 'Arial', 'Helvetica', 'Avant Garde', sans-serif; text-anchor: middle" x="378.327273" y="289.977813" transform="rotate(-0 378.327273 289.977813)">0.2</text>
     </g>
    </g>
    <g id="xtick_9">
     <g id="line2d_19">
      <g>
       <use xlink:href="#m8a9dca8762" x="421.445455" y="272.34" style="stroke: #000000; stroke-width: 0.8"/>
      </g>
     </g>
     <g id="text_21">
      <text style="font: 14px 'DejaVu Sans', 'Bitstream Vera Sans', 'Computer Modern Sans Serif', 'Lucida Grande', 'Verdana', 'Geneva', 'Lucid', 'Arial', 'Helvetica', 'Avant Garde', sans-serif; text-anchor: middle" x="421.445455" y="289.977813" transform="rotate(-0 421.445455 289.977813)">0.4</text>
     </g>
    </g>
    <g id="xtick_10">
     <g id="line2d_20">
      <g>
       <use xlink:href="#m8a9dca8762" x="464.563636" y="272.34" style="stroke: #000000; stroke-width: 0.8"/>
      </g>
     </g>
     <g id="text_22">
      <text style="font: 14px 'DejaVu Sans', 'Bitstream Vera Sans', 'Computer Modern Sans Serif', 'Lucida Grande', 'Verdana', 'Geneva', 'Lucid', 'Arial', 'Helvetica', 'Avant Garde', sans-serif; text-anchor: middle" x="464.563636" y="289.977813" transform="rotate(-0 464.563636 289.977813)">0.6</text>
     </g>
    </g>
    <g id="xtick_11">
     <g id="line2d_21">
      <g>
       <use xlink:href="#m8a9dca8762" x="507.681818" y="272.34" style="stroke: #000000; stroke-width: 0.8"/>
      </g>
     </g>
     <g id="text_23">
      <text style="font: 14px 'DejaVu Sans', 'Bitstream Vera Sans', 'Computer Modern Sans Serif', 'Lucida Grande', 'Verdana', 'Geneva', 'Lucid', 'Arial', 'Helvetica', 'Avant Garde', sans-serif; text-anchor: middle" x="507.681818" y="289.977813" transform="rotate(-0 507.681818 289.977813)">0.8</text>
     </g>
    </g>
    <g id="xtick_12">
     <g id="line2d_22">
      <g>
       <use xlink:href="#m8a9dca8762" x="550.8" y="272.34" style="stroke: #000000; stroke-width: 0.8"/>
      </g>
     </g>
     <g id="text_24">
      <text style="font: 14px 'DejaVu Sans', 'Bitstream Vera Sans', 'Computer Modern Sans Serif', 'Lucida Grande', 'Verdana', 'Geneva', 'Lucid', 'Arial', 'Helvetica', 'Avant Garde', sans-serif; text-anchor: middle" x="550.8" y="289.977813" transform="rotate(-0 550.8 289.977813)">1.0</text>
     </g>
    </g>
    <g id="text_25">
     <text style="font: 14px 'DejaVu Sans', 'Bitstream Vera Sans', 'Computer Modern Sans Serif', 'Lucida Grande', 'Verdana', 'Geneva', 'Lucid', 'Arial', 'Helvetica', 'Avant Garde', sans-serif; text-anchor: middle" x="443.004545" y="307.527188" transform="rotate(-0 443.004545 307.527188)">Input</text>
    </g>
   </g>
   <g id="matplotlib.axis_4">
    <g id="ytick_7">
     <g id="line2d_23">
      <g>
       <use xlink:href="#m905a5cbe39" x="335.209091" y="231.051055" style="stroke: #000000; stroke-width: 0.8"/>
      </g>
     </g>
     <g id="text_26">
      <text style="font: 14px 'DejaVu Sans', 'Bitstream Vera Sans', 'Computer Modern Sans Serif', 'Lucida Grande', 'Verdana', 'Geneva', 'Lucid', 'Arial', 'Helvetica', 'Avant Garde', sans-serif; text-anchor: end" x="328.209091" y="236.369961" transform="rotate(-0 328.209091 236.369961)">0.4</text>
     </g>
    </g>
    <g id="ytick_8">
     <g id="line2d_24">
      <g>
       <use xlink:href="#m905a5cbe39" x="335.209091" y="188.612993" style="stroke: #000000; stroke-width: 0.8"/>
      </g>
     </g>
     <g id="text_27">
      <text style="font: 14px 'DejaVu Sans', 'Bitstream Vera Sans', 'Computer Modern Sans Serif', 'Lucida Grande', 'Verdana', 'Geneva', 'Lucid', 'Arial', 'Helvetica', 'Avant Garde', sans-serif; text-anchor: end" x="328.209091" y="193.9319" transform="rotate(-0 328.209091 193.9319)">0.6</text>
     </g>
    </g>
    <g id="ytick_9">
     <g id="line2d_25">
      <g>
       <use xlink:href="#m905a5cbe39" x="335.209091" y="146.174932" style="stroke: #000000; stroke-width: 0.8"/>
      </g>
     </g>
     <g id="text_28">
      <text style="font: 14px 'DejaVu Sans', 'Bitstream Vera Sans', 'Computer Modern Sans Serif', 'Lucida Grande', 'Verdana', 'Geneva', 'Lucid', 'Arial', 'Helvetica', 'Avant Garde', sans-serif; text-anchor: end" x="328.209091" y="151.493838" transform="rotate(-0 328.209091 151.493838)">0.8</text>
     </g>
    </g>
    <g id="ytick_10">
     <g id="line2d_26">
      <g>
       <use xlink:href="#m905a5cbe39" x="335.209091" y="103.73687" style="stroke: #000000; stroke-width: 0.8"/>
      </g>
     </g>
     <g id="text_29">
      <text style="font: 14px 'DejaVu Sans', 'Bitstream Vera Sans', 'Computer Modern Sans Serif', 'Lucida Grande', 'Verdana', 'Geneva', 'Lucid', 'Arial', 'Helvetica', 'Avant Garde', sans-serif; text-anchor: end" x="328.209091" y="109.055776" transform="rotate(-0 328.209091 109.055776)">1.0</text>
     </g>
    </g>
    <g id="ytick_11">
     <g id="line2d_27">
      <g>
       <use xlink:href="#m905a5cbe39" x="335.209091" y="61.298809" style="stroke: #000000; stroke-width: 0.8"/>
      </g>
     </g>
     <g id="text_30">
      <text style="font: 14px 'DejaVu Sans', 'Bitstream Vera Sans', 'Computer Modern Sans Serif', 'Lucida Grande', 'Verdana', 'Geneva', 'Lucid', 'Arial', 'Helvetica', 'Avant Garde', sans-serif; text-anchor: end" x="328.209091" y="66.617715" transform="rotate(-0 328.209091 66.617715)">1.2</text>
     </g>
    </g>
    <g id="text_31">
     <text style="font: 14px 'DejaVu Sans', 'Bitstream Vera Sans', 'Computer Modern Sans Serif', 'Lucida Grande', 'Verdana', 'Geneva', 'Lucid', 'Arial', 'Helvetica', 'Avant Garde', sans-serif; text-anchor: middle" x="299.033153" y="154.53" transform="rotate(-90 299.033153 154.53)">Acquisition Function</text>
    </g>
   </g>
   <g id="line2d_28">
    <path d="M 335.209091 246.599994 
L 336.719738 252.663453 
L 337.798771 256.226129 
L 338.661998 258.510399 
L 339.525225 260.214527 
L 340.172645 261.072801 
L 340.820066 261.542074 
L 341.251679 261.63 
L 341.683292 261.532905 
L 342.114906 261.249347 
L 342.762326 260.475736 
L 343.409746 259.290789 
L 344.272973 257.106435 
L 345.1362 254.294054 
L 346.215233 250.021846 
L 347.72588 242.953851 
L 349.883948 231.510817 
L 355.494922 201.117637 
L 357.652989 190.883182 
L 359.59525 182.711209 
L 361.53751 175.486827 
L 363.695577 168.316261 
L 369.090745 150.898705 
L 372.327846 139.155741 
L 374.917527 130.114516 
L 376.64398 124.925754 
L 377.938821 121.670989 
L 379.233661 119.040543 
L 380.312695 117.350353 
L 381.391728 116.117864 
L 382.254955 115.451909 
L 383.118182 115.054144 
L 383.981409 114.901969 
L 384.844636 114.965219 
L 385.923669 115.289337 
L 387.434316 116.027535 
L 389.376577 116.973899 
L 390.239803 117.195775 
L 391.10303 117.187529 
L 391.75045 116.988343 
L 392.397871 116.596497 
L 393.045291 115.994412 
L 393.908518 114.849254 
L 394.771744 113.313692 
L 395.850778 110.880485 
L 397.145618 107.31478 
L 398.872072 101.748755 
L 401.461753 92.469188 
L 405.777887 76.971716 
L 408.151761 69.306556 
L 410.094021 63.737242 
L 411.820475 59.396484 
L 413.546929 55.677326 
L 415.057576 52.96089 
L 416.352416 51.047876 
L 417.647256 49.529667 
L 418.72629 48.573109 
L 419.805324 47.902562 
L 420.884357 47.522453 
L 421.747584 47.43 
L 422.610811 47.527259 
L 423.474038 47.815117 
L 424.553071 48.443168 
L 425.632105 49.367627 
L 426.711138 50.583863 
L 428.005979 52.415681 
L 429.300819 54.629049 
L 430.811466 57.636783 
L 432.969533 62.514226 
L 436.206634 69.923198 
L 437.501474 72.308269 
L 438.364701 73.514059 
L 439.227928 74.325272 
L 439.875348 74.640549 
L 440.522768 74.68947 
L 441.170188 74.470364 
L 441.817609 73.993299 
L 442.680835 72.991337 
L 443.544062 71.633144 
L 444.838903 69.100097 
L 446.781163 64.696481 
L 449.802457 57.83975 
L 451.528911 54.45383 
L 453.039558 51.976483 
L 454.334398 50.261402 
L 455.629238 48.945933 
L 456.708272 48.163228 
L 457.787305 47.668608 
L 458.866339 47.462529 
L 459.729566 47.50457 
L 460.592793 47.729266 
L 461.671826 48.26461 
L 462.75086 49.07944 
L 463.829894 50.16996 
L 465.124734 51.836803 
L 466.419574 53.8876 
L 467.930221 56.755705 
L 469.440868 60.124046 
L 471.167322 64.568083 
L 472.893776 69.622415 
L 474.836036 75.997351 
L 476.994103 83.859737 
L 479.583784 94.196789 
L 483.684111 111.700968 
L 486.921212 125.136993 
L 488.863473 132.295418 
L 490.37412 137.113987 
L 491.884767 141.172377 
L 493.179607 144.049854 
L 494.474447 146.425388 
L 495.769287 148.361042 
L 497.064128 149.897122 
L 498.143161 150.871146 
L 499.222195 151.538898 
L 500.085422 151.821962 
L 500.948649 151.851393 
L 501.811876 151.599542 
L 502.675102 151.044948 
L 503.538329 150.176354 
L 504.401556 148.995859 
L 505.48059 147.104156 
L 506.77543 144.289625 
L 508.286077 140.393339 
L 510.228337 134.694401 
L 513.465438 124.348458 
L 517.997379 109.985128 
L 520.58706 102.481173 
L 522.960934 96.238505 
L 525.119001 91.134949 
L 527.277068 86.580802 
L 529.435135 82.559647 
L 531.593202 79.04151 
L 533.535463 76.273623 
L 535.477723 73.850964 
L 537.63579 71.524704 
L 539.793857 69.540889 
L 541.951925 67.857275 
L 544.325799 66.305145 
L 546.699672 65.020915 
L 549.289353 63.875656 
L 550.8 63.312184 
L 550.8 63.312184 
" clip-path="url(#pa4cc5cf459)" style="fill: none; stroke: #1f77b4; stroke-width: 1.5; stroke-linecap: square"/>
   </g>
   <g id="patch_10">
    <path d="M 335.209091 272.34 
L 335.209091 36.72 
" style="fill: none; stroke: #000000; stroke-width: 0.8; stroke-linejoin: miter; stroke-linecap: square"/>
   </g>
   <g id="patch_11">
    <path d="M 550.8 272.34 
L 550.8 36.72 
" style="fill: none; stroke: #000000; stroke-width: 0.8; stroke-linejoin: miter; stroke-linecap: square"/>
   </g>
   <g id="patch_12">
    <path d="M 335.209091 272.34 
L 550.8 272.34 
" style="fill: none; stroke: #000000; stroke-width: 0.8; stroke-linejoin: miter; stroke-linecap: square"/>
   </g>
   <g id="patch_13">
    <path d="M 335.209091 36.72 
L 550.8 36.72 
" style="fill: none; stroke: #000000; stroke-width: 0.8; stroke-linejoin: miter; stroke-linecap: square"/>
   </g>
  </g>
 </g>
 <defs>
  <clipPath id="p00e0188c08">
   <rect x="76.5" y="36.72" width="215.590909" height="235.62"/>
  </clipPath>
  <clipPath id="pa4cc5cf459">
   <rect x="335.209091" y="36.72" width="215.590909" height="235.62"/>
  </clipPath>
 </defs>
</svg>
